<?xml version="1.0" encoding="utf-8"?>
<svg width="54px" height="46px" viewBox="0 0 54 46" version="1.1" xmlns:xlink="http://www.w3.org/1999/xlink" xmlns="http://www.w3.org/2000/svg">
  <g id="logo-icon">
    <g id="Group" transform="translate(0 2)">
      <g id="2" transform="translate(12 0)" opacity="0.2992699">
        <path d="M-457.385 16.7574L-443.243 2.61522C-440.9 0.272078 -437.1 0.272078 -434.757 2.61522L-420.615 16.7574C-418.272 19.1005 -418.272 22.8995 -420.615 25.2426L-434.757 39.3848C-437.1 41.7279 -440.9 41.7279 -443.243 39.3848L-457.385 25.2426C-459.728 22.8995 -459.728 19.1005 -457.385 16.7574Z" id="2" fill="#007BFF" fill-rule="evenodd" stroke="none" />
      </g>
      <path d="M-457.385 16.7574L-443.243 2.61522C-440.9 0.272078 -437.1 0.272078 -434.757 2.61522L-420.615 16.7574C-418.272 19.1005 -418.272 22.8995 -420.615 25.2426L-434.757 39.3848C-437.1 41.7279 -440.9 41.7279 -443.243 39.3848L-457.385 25.2426C-459.728 22.8995 -459.728 19.1005 -457.385 16.7574Z" id="1" fill="#007BFF" fill-rule="evenodd" stroke="none" />
      <g id="Group-2" transform="matrix(0.70710677 -0.70710677 0.70710677 0.70710677 10.454059 19.439339)">
        <path d="M-457.379 4.73009L-458.053 4.73009C-458.088 4.73009 -458.139 4.77844 -458.141 4.81038L-458.638 12.8388L-449.357 12.8371L-449.859 4.81038C-449.861 4.77965 -449.914 4.73009 -449.947 4.73009L-450.621 4.73009L-450.621 6.08154C-450.621 6.45474 -450.924 6.75727 -451.297 6.75727C-451.67 6.75727 -451.973 6.45474 -451.973 6.08154L-451.973 4.73009L-456.027 4.73009L-456.027 6.08154C-456.027 6.45474 -456.33 6.75727 -456.703 6.75727C-457.076 6.75727 -457.379 6.45474 -457.379 6.08154L-457.379 4.73009Z" id="Path" fill="#FFFFFF" fill-opacity="0.3" fill-rule="evenodd" stroke="none" />
        <path d="M-454 -1.24345e-14C-452.135 -1.24345e-14 -450.621 1.5138 -450.621 3.37704L-449.947 3.37864C-449.2 3.37864 -448.556 3.98308 -448.51 4.72608L-448.003 12.8428C-447.956 13.587 -448.522 14.1903 -449.267 14.1903L-458.733 14.1903C-459.478 14.1903 -460.044 13.5858 -459.997 12.8428L-459.49 4.72608C-459.444 3.98191 -458.801 3.37864 -458.053 3.37864L-457.379 3.37864C-457.379 1.51279 -455.864 -1.24345e-14 -454 -1.24345e-14ZM-451.973 3.37864C-451.973 2.26015 -452.881 1.35145 -454 1.35145C-455.118 1.35145 -456.027 2.25959 -456.027 3.37704L-451.973 3.37864ZM-457.379 4.73009L-458.053 4.73009C-458.088 4.73009 -458.139 4.77844 -458.141 4.81038L-458.638 12.8388L-449.357 12.8371L-449.859 4.81038C-449.861 4.77965 -449.914 4.73009 -449.947 4.73009L-450.621 4.73009L-450.621 6.08154C-450.621 6.45474 -450.924 6.75727 -451.297 6.75727C-451.67 6.75727 -451.973 6.45474 -451.973 6.08154L-451.973 4.73009L-456.027 4.73009L-456.027 6.08154C-456.027 6.45474 -456.33 6.75727 -456.703 6.75727C-457.076 6.75727 -457.379 6.45474 -457.379 6.08154L-457.379 4.73009Z" id="Combined-Shape" fill="#FFFFFF" fill-rule="evenodd" stroke="none" />
      </g>
    </g>
  </g>
</svg>
