<svg width="800" height="800" xmlns="http://www.w3.org/2000/svg" xml:space="preserve" version="1.1">
 <defs>
  <linearGradient y2="0.11211" x2="0.74854" y1="0.8191" x1="0.1727" id="SVGID_1_">
   <stop stop-color="#0288D1" offset="0"/>
   <stop stop-color="#0277BD" offset="1"/>
  </linearGradient>
  <linearGradient y2="0.89519" x2="0.09926" y1="0.33039" x1="0.57411" id="SVGID_2_">
   <stop stop-opacity="0" stop-color="#FFFFFF" offset="0"/>
   <stop stop-color="#424242" offset="1"/>
  </linearGradient>
  <linearGradient y2="0.1783" x2="-0.05541" y1="0.92515" x1="0.83476" id="SVGID_3_">
   <stop stop-color="#4FC3F7" offset="0"/>
   <stop stop-color="#039BE5" offset="0.9949"/>
  </linearGradient>
 </defs>
 <g>
  <title>Layer 1</title>
  <g id="svg_1">
   <path id="svg_2" fill="url(#SVGID_1_)" d="m568.60041,192.79944c0,98 -79.5,177.4 -177.4,177.4l-244.6,0l0,-276c0,-43.5 35.2,-78.8 78.8,-78.8l165.8,0c49,0 93.3,19.9 125.4,52s52,76.4 52,125.4z" class="st0"/>
   <path id="svg_3" enable-background="new" fill="url(#SVGID_2_)" opacity="0.5" d="m568.60041,192.79944c0,98 -79.5,177.4 -177.4,177.4l-244.6,0l0,-276c0,-43.5 35.2,-78.8 78.8,-78.8l165.8,0c49,0 93.3,19.9 125.4,52s52,76.4 52,125.4z" class="st1"/>
   <path id="svg_4" fill="url(#SVGID_3_)" d="m652.00041,340.89944c-38.1,-38 -90.7,-61.6 -148.7,-61.6l-277.9,0l0,0c-43.5,0 -78.7,-35.3 -78.7,-78.8l0,78.8l0,0l0,342c0,43.5 35.2,78.8 78.8,78.8l277.9,0c116.2,0 210.4,-94.2 210.4,-210.4c-0.2,-58.2 -23.7,-110.7 -61.8,-148.8z" class="st2"/>
  </g>
  <path transform="rotate(180 334.714 174.313)" stroke="#000" id="svg_5" d="m335.73648,79.31143c28.4214,0 51.47846,21.2913 51.47846,47.51088c0,26.21959 -23.05706,47.4904 -51.47846,47.4904c-28.42141,0 -51.47847,21.29132 -51.47847,47.51089c0,26.21958 23.05706,47.4904 51.47847,47.4904c56.84279,0 102.97912,-42.56215 102.97912,-95.0013c0,-52.43916 -46.13632,-95.00128 -102.97912,-95.00128l0,0.00001zm0,32.66373c-8.88626,0 -16.09397,6.6493 -16.09397,14.84715c0,8.19786 7.20769,14.84715 16.09397,14.84715c8.88627,0 16.09395,-6.6493 16.09395,-14.84715c0,-8.19785 -7.20768,-14.84715 -16.09395,-14.84715zm0,95.0013c8.88167,0 16.09395,6.65352 16.09395,14.84715c0,8.1936 -7.21227,14.84716 -16.09395,14.84716c-8.88169,0 -16.09397,-6.65355 -16.09397,-14.84716c0,-8.1936 7.21228,-14.84715 16.09397,-14.84715zm100.66936,-32.60321c0,52.40019 -46.04594,94.87894 -102.84654,94.87894c-56.80057,0 -102.84654,-42.47875 -102.84654,-94.87894c0,-52.40021 46.04597,-94.87897 102.84654,-94.87897c56.8006,0 102.84654,42.47876 102.84654,94.87897z" fill="#fff"/>
  <path transform="rotate(180 362.515 545.688)" stroke="#000" id="svg_6" d="m362.98638,507.68721c13.11757,0 23.75929,8.51652 23.75929,19.00435c0,10.48784 -10.64172,18.99616 -23.75929,18.99616c-13.11757,0 -23.7593,8.51653 -23.7593,19.00436c0,10.48783 10.64172,18.99616 23.7593,18.99616c26.23513,0 47.52882,-17.02486 47.52882,-38.00052c0,-20.97566 -21.29369,-38.00051 -47.52882,-38.00051l0,0zm0,13.06549c-4.10135,0 -7.42799,2.65972 -7.42799,5.93886c0,3.27914 3.32663,5.93886 7.42799,5.93886c4.10136,0 7.42798,-2.65972 7.42798,-5.93886c0,-3.27914 -3.32662,-5.93886 -7.42798,-5.93886zm0,38.00052c4.09923,0 7.42798,2.66141 7.42798,5.93886c0,3.27744 -3.32874,5.93886 -7.42798,5.93886c-4.09924,0 -7.42799,-2.66142 -7.42799,-5.93886c0,-3.27744 3.32875,-5.93886 7.42799,-5.93886zm46.46278,-13.04129c0,20.96008 -21.25197,37.95158 -47.46763,37.95158c-26.21565,0 -47.46763,-16.9915 -47.46763,-37.95158c0,-20.96008 21.25198,-37.95159 47.46763,-37.95159c26.21566,0 47.46763,16.99151 47.46763,37.95159z" fill="#fff"/>
  <path stroke="#000" id="svg_13" d="m365.73688,415.31598c28.4214,0 51.47846,21.2913 51.47846,47.51087c0,26.21959 -23.05706,47.49041 -51.47846,47.49041c-28.42141,0 -51.47847,21.29132 -51.47847,47.51088c0,26.21958 23.05706,47.4904 51.47847,47.4904c56.84279,0 102.97912,-42.56214 102.97912,-95.00129c0,-52.43916 -46.13633,-95.00128 -102.97912,-95.00128l0,0.00001zm0,32.66373c-8.88626,0 -16.09397,6.6493 -16.09397,14.84714c0,8.19786 7.20769,14.84715 16.09397,14.84715c8.88627,0 16.09395,-6.6493 16.09395,-14.84715c0,-8.19784 -7.20768,-14.84714 -16.09395,-14.84714zm0,95.00129c8.88167,0 16.09395,6.65353 16.09395,14.84715c0,8.1936 -7.21227,14.84716 -16.09395,14.84716c-8.88169,0 -16.09397,-6.65355 -16.09397,-14.84716c0,-8.1936 7.21228,-14.84715 16.09397,-14.84715zm100.66936,-32.60321c0,52.40019 -46.04593,94.87894 -102.84653,94.87894c-56.80057,0 -102.84654,-42.47875 -102.84654,-94.87894c0,-52.40021 46.04597,-94.87898 102.84654,-94.87898c56.8006,0 102.84653,42.47877 102.84653,94.87898z" fill="#fff"/>
  <path id="svg_15" d="m322.8662,76.93142c12.571,0 22.76932,8.2924 22.76932,18.50423c0,10.21184 -10.19832,18.49626 -22.76932,18.49626c-12.57101,0 -22.76932,8.29241 -22.76932,18.50424c0,10.21184 10.19832,18.49626 22.76932,18.49626c25.142,0 45.54845,-16.57683 45.54845,-37.0005c0,-20.42367 -20.40645,-37.00049 -45.54845,-37.00049l0,0zm0,12.72166c-3.93046,0 -7.11849,2.58973 -7.11849,5.78257c0,3.19285 3.18802,5.78257 7.11849,5.78257c3.93047,0 7.11848,-2.58973 7.11848,-5.78257c0,-3.19285 -3.18801,-5.78257 -7.11848,-5.78257zm0,37.0005c3.92843,0 7.11848,2.59137 7.11848,5.78257c0,3.19119 -3.19004,5.78258 -7.11848,5.78258c-3.92844,0 -7.11849,-2.59138 -7.11849,-5.78258c0,-3.19119 3.19005,-5.78257 7.11849,-5.78257zm44.52683,-12.69809c0,20.40849 -20.36647,36.95285 -45.48981,36.95285c-25.12333,0 -45.48981,-16.54435 -45.48981,-36.95285c0,-20.4085 20.36648,-36.95286 45.48981,-36.95286c25.12334,0 45.48981,16.54436 45.48981,36.95286z" stroke="#000" fill="#fff"/>
 </g>
</svg>